<svg xmlns="http://www.w3.org/2000/svg" width="1024" height="1024" viewBox="0 0 1024 1024">
<g fill="currentColor">
<path d="M 536.50 998.28 C516.94,1006.65 516.87,1006.65 494.67,996.57 C486.88,993.03 473.75,987.23 465.50,983.67 C447.87,976.08 422.76,965.08 399.29,954.66 C390.06,950.56 374.62,943.74 365.00,939.52 C355.38,935.29 343.67,930.10 339.00,928.00 C334.33,925.89 327.67,922.99 324.22,921.55 C320.76,920.12 314.91,917.57 311.22,915.89 C301.15,911.30 300.62,911.06 271.00,897.92 C255.88,891.21 239.00,883.82 233.50,881.49 C217.18,874.59 200.13,867.07 190.00,862.29 C184.77,859.83 176.45,856.11 171.50,854.02 C164.15,850.93 136.65,838.79 128.50,835.03 C127.40,834.53 120.88,831.68 114.00,828.70 C70.70,809.95 67.55,808.45 63.87,804.82 C61.06,802.04 59.97,800.02 59.45,796.53 C58.63,791.02 59.57,784.15 61.44,782.03 C62.18,781.19 64.80,776.90 67.27,772.50 C74.89,758.89 97.50,719.90 102.35,712.00 C104.88,707.88 107.92,702.70 109.11,700.50 C110.29,698.30 115.76,688.85 121.25,679.50 C126.75,670.15 134.28,657.33 138.00,651.00 C141.71,644.67 146.04,637.35 147.62,634.73 C149.21,632.11 151.19,628.73 152.03,627.23 C152.87,625.73 155.41,621.35 157.67,617.50 C159.93,613.65 164.82,605.33 168.54,599.00 C177.21,584.26 177.90,583.07 183.39,573.50 C185.91,569.10 189.35,563.25 191.04,560.50 C192.72,557.75 197.96,548.75 202.69,540.50 C207.42,532.25 213.63,521.67 216.50,517.00 C219.37,512.33 223.19,505.80 225.00,502.50 C226.81,499.20 230.62,492.67 233.48,488.00 C236.33,483.33 240.49,476.35 242.72,472.50 C248.26,462.94 269.10,427.42 275.29,417.00 C280.00,409.06 285.13,400.17 290.05,391.41 C291.20,389.36 294.99,382.92 298.47,377.10 C305.78,364.85 319.95,340.67 337.77,310.00 C357.58,275.89 363.47,265.85 366.75,260.50 C370.42,254.52 389.25,222.37 392.81,216.00 C395.61,211.01 410.75,185.03 414.97,178.00 C416.46,175.52 419.62,170.12 421.99,166.00 C424.37,161.88 427.32,156.93 428.55,155.00 C430.62,151.78 432.74,148.11 442.98,130.00 C445.01,126.43 449.44,118.94 452.83,113.36 C456.22,107.79 459.00,102.96 459.00,102.64 C459.00,102.14 467.60,87.51 472.89,79.00 C473.75,77.62 475.29,74.93 476.31,73.00 C477.34,71.07 479.89,66.57 481.98,63.00 C484.07,59.42 488.79,51.33 492.48,45.00 C504.98,23.56 507.05,21.62 517.42,21.63 C523.43,21.64 526.75,22.73 530.35,25.87 C531.88,27.21 542.47,44.41 550.74,59.00 C551.84,60.92 555.79,67.68 559.53,74.00 C563.26,80.32 568.87,90.00 571.99,95.50 C575.11,101.00 579.69,108.88 582.16,113.00 C584.64,117.12 589.53,125.45 593.03,131.50 C600.60,144.61 609.94,160.60 618.43,175.00 C621.83,180.77 626.58,188.88 628.97,193.00 C631.36,197.12 634.31,202.07 635.53,204.00 C637.84,207.65 656.36,239.34 663.28,251.50 C667.23,258.44 676.11,273.62 692.50,301.42 C697.17,309.35 701.00,316.08 701.00,316.36 C701.00,316.65 703.69,321.20 706.98,326.47 C710.27,331.75 715.71,340.89 719.07,346.78 C722.43,352.68 726.11,359.08 727.25,361.00 C739.51,381.68 756.81,411.18 765.98,427.00 C777.07,446.16 779.53,450.35 799.70,484.50 C810.94,503.53 828.03,532.77 845.00,562.00 C851.22,572.72 858.00,584.20 860.06,587.50 C864.78,595.09 878.00,617.95 878.00,618.54 C878.00,618.78 879.95,622.02 882.33,625.74 C884.71,629.46 889.55,637.67 893.07,644.00 C896.60,650.33 901.29,658.30 903.50,661.72 C905.70,665.15 910.20,672.71 913.50,678.53 C920.17,690.30 923.26,695.59 944.19,731.00 C965.02,766.24 973.64,781.89 974.98,786.91 C976.42,792.28 975.63,797.15 972.44,802.65 C970.33,806.29 968.58,807.51 958.48,812.40 C952.13,815.48 946.54,818.00 946.06,818.00 C945.59,818.00 941.44,819.75 936.85,821.89 C926.74,826.59 905.47,836.07 890.50,842.53 C884.45,845.14 871.85,850.64 862.50,854.75 C853.15,858.86 842.12,863.69 838.00,865.48 C833.88,867.28 823.98,871.73 816.01,875.38 C808.04,879.02 801.22,882.00 800.85,882.00 C800.48,882.00 795.38,884.27 789.52,887.04 C783.66,889.81 775.64,893.37 771.68,894.96 C767.73,896.54 760.45,899.69 755.50,901.96 C750.55,904.22 745.60,906.45 744.50,906.92 C743.40,907.38 738.00,909.79 732.50,912.28 C727.00,914.77 717.55,918.90 711.50,921.47 C705.45,924.04 697.80,927.42 694.50,928.98 C691.20,930.54 684.00,933.70 678.50,936.02 C673.00,938.33 667.38,940.83 666.00,941.57 C664.62,942.32 659.00,944.79 653.50,947.07 C648.00,949.34 640.80,952.44 637.50,953.94 C627.75,958.39 609.40,966.53 596.00,972.36 C589.12,975.35 578.78,979.91 573.00,982.50 C567.22,985.08 559.58,988.44 556.00,989.96 C552.42,991.47 543.65,995.22 536.50,998.28 ZM 149.00 732.07 C149.00,733.23 157.12,729.29 244.83,685.49 C311.64,652.13 324.05,645.61 323.44,644.19 C321.25,639.11 316.80,624.86 317.26,624.41 C317.56,624.11 319.72,624.39 322.07,625.02 C325.02,625.81 331.62,625.95 343.42,625.47 C344.00,625.45 344.57,625.42 345.13,625.40 C357.89,624.87 363.28,624.65 366.86,627.09 C369.63,628.98 371.32,632.48 374.50,638.68 C382.45,654.19 388.17,662.69 397.75,673.27 C423.99,702.25 456.07,719.87 495.50,726.95 C504.86,728.63 533.06,728.34 543.00,726.46 C594.59,716.72 637.02,685.25 660.53,639.29 C663.79,632.91 665.45,629.34 668.24,627.40 C671.79,624.94 677.15,625.11 689.93,625.52 C690.75,625.54 691.61,625.57 692.50,625.60 C705.48,626.00 712.41,625.83 714.39,625.06 C715.98,624.45 717.51,624.18 717.80,624.46 C718.08,624.75 717.30,628.25 716.07,632.24 C714.83,636.23 713.75,640.09 713.66,640.82 C713.48,642.32 715.66,643.53 751.62,661.99 C765.85,669.30 788.97,681.23 803.00,688.49 C824.19,699.47 870.67,723.38 881.31,728.78 C882.86,729.57 884.26,730.05 884.43,729.85 C884.68,729.56 877.61,717.40 859.36,686.77 C857.63,683.87 851.85,673.90 846.51,664.61 C841.17,655.32 834.81,644.60 832.36,640.79 C829.92,636.97 826.12,630.49 823.94,626.38 C821.75,622.27 815.92,612.23 810.98,604.07 C806.04,595.91 802.00,588.94 802.00,588.58 C802.00,588.21 801.16,586.70 800.13,585.21 C799.10,583.72 792.29,572.15 784.98,559.50 C777.68,546.85 769.90,533.58 767.70,530.00 C765.49,526.42 762.10,520.58 760.16,517.00 C758.22,513.42 755.39,508.48 753.87,506.00 C752.35,503.52 748.77,497.45 745.92,492.50 C743.06,487.55 738.84,480.35 736.53,476.50 C731.39,467.91 722.44,452.72 704.43,422.00 C696.85,409.08 687.73,393.55 684.16,387.50 C678.28,377.53 668.78,361.16 654.54,336.50 C646.68,322.88 625.97,287.54 614.99,269.00 C609.61,259.92 601.72,246.43 597.46,239.00 C593.19,231.57 588.31,223.15 586.60,220.29 C584.90,217.42 578.71,206.84 572.86,196.79 C567.00,186.73 559.84,174.45 556.93,169.50 C554.03,164.55 549.44,156.68 546.74,152.00 C544.03,147.32 541.41,143.07 540.91,142.55 C540.36,141.98 540.00,185.01 540.00,250.28 L 540.00 358.96 L 542.25 359.42 C543.49,359.68 549.90,360.83 556.50,362.00 C569.54,364.30 574.75,365.75 591.50,371.77 C620.12,382.05 643.34,397.33 666.53,421.15 C684.79,439.91 694.81,454.15 705.81,477.00 C709.39,484.42 713.53,494.38 715.02,499.12 L 717.71 507.73 L 709.11 507.38 C704.37,507.19 694.88,506.83 688.00,506.59 C681.12,506.35 673.92,505.61 672.00,504.94 C667.50,503.39 662.37,498.58 659.80,493.50 C639.68,453.86 605.15,425.63 560.00,411.91 C537.63,405.12 501.22,405.09 475.50,411.86 C453.00,417.79 424.19,434.19 406.36,451.23 C398.40,458.84 383.60,478.04 378.50,487.36 C376.30,491.38 373.03,496.35 371.23,498.40 C365.82,504.56 362.97,505.26 340.46,505.98 C329.43,506.34 319.87,506.96 319.21,507.37 C318.46,507.84 318.00,507.51 318.00,506.53 C318.00,504.61 322.84,491.84 328.20,479.59 C339.18,454.52 361.15,425.67 383.46,407.03 C392.32,399.63 414.37,384.82 422.93,380.52 C438.63,372.62 463.12,364.69 481.50,361.53 L 494.50 359.31 L 494.75 249.95 L 495.01 140.59 L 488.37 152.05 C484.72,158.35 479.15,168.00 476.00,173.50 C472.84,179.00 467.35,188.45 463.79,194.50 C460.22,200.55 453.12,212.70 448.01,221.50 C442.89,230.30 436.82,240.65 434.51,244.50 C432.20,248.35 425.91,259.15 420.52,268.50 C415.14,277.85 409.71,287.08 408.47,289.00 C407.22,290.92 404.08,296.33 401.47,301.00 C398.87,305.67 393.93,314.23 390.50,320.00 C382.75,333.06 368.47,357.42 361.20,370.00 C358.18,375.23 354.72,381.08 353.51,383.00 C352.30,384.92 349.51,389.65 347.30,393.50 C338.00,409.71 328.60,425.80 325.97,430.00 C324.42,432.48 320.82,438.73 317.96,443.89 C315.11,449.05 310.02,457.70 306.64,463.10 C303.26,468.50 298.70,476.13 296.50,480.06 C294.30,483.99 289.01,493.07 284.75,500.23 C280.49,507.40 277.00,513.45 277.00,513.68 C277.00,513.91 269.64,526.57 260.64,541.80 C251.65,557.04 241.86,573.71 238.89,578.84 C235.93,583.98 233.05,588.93 232.50,589.84 C231.95,590.76 229.97,594.20 228.10,597.50 C226.23,600.80 222.81,606.65 220.50,610.50 C218.19,614.35 212.11,624.70 206.98,633.50 C201.85,642.30 195.56,653.10 193.00,657.50 C190.43,661.90 185.17,670.90 181.30,677.50 C177.42,684.10 169.42,697.83 163.50,708.00 C157.59,718.17 151.90,727.57 150.87,728.88 C149.84,730.20 149.00,731.63 149.00,732.07 ZM 541.26 693.00 C533.69,694.46 527.07,694.98 516.70,694.92 C494.63,694.78 478.06,690.80 456.50,680.46 C431.88,668.64 413.08,654.39 386.00,627.04 C374.07,614.99 369.29,609.83 363.40,607.62 C358.98,605.97 353.95,605.98 344.80,606.00 C343.83,606.00 342.81,606.00 341.74,606.00 C321.52,606.00 317.09,604.92 310.70,598.44 C307.81,595.50 305.79,592.33 304.98,589.43 C303.21,583.11 304.27,574.57 307.37,570.22 L 309.85 566.73 L 307.25 562.81 C304.14,558.10 303.18,550.01 304.97,543.59 C306.33,538.75 312.55,531.93 317.50,529.86 C319.38,529.08 328.14,528.39 341.00,528.02 C364.81,527.34 365.94,527.00 374.22,518.16 C385.87,505.70 405.67,486.60 413.36,480.40 C431.76,465.56 455.71,451.84 474.00,445.66 C507.51,434.34 543.17,436.56 576.70,452.04 C602.67,464.03 630.31,485.25 653.41,510.95 C668.08,527.26 668.04,527.24 694.00,528.01 C716.64,528.68 719.16,529.27 724.65,535.13 C727.96,538.66 731.00,546.17 730.99,550.78 C730.99,555.20 729.09,560.74 726.57,563.74 L 724.21 566.54 L 726.56 569.27 C729.07,572.19 730.99,577.78 730.99,582.22 C731.01,590.55 723.32,601.82 716.03,604.16 C714.09,604.78 703.28,605.58 692.00,605.94 C672.13,606.56 671.36,606.67 666.97,609.26 C664.48,610.73 658.18,616.70 652.97,622.53 C647.77,628.36 638.56,637.57 632.50,643.00 C600.77,671.45 572.43,686.99 541.26,693.00 ZM 540.23 863.25 C540.11,906.01 540.29,941.00 540.63,941.00 C540.97,941.00 543.78,939.90 546.87,938.56 C562.24,931.90 569.88,928.52 585.50,921.48 C594.85,917.27 607.39,911.82 613.36,909.37 C619.33,906.92 626.82,903.60 630.01,901.99 C633.20,900.38 642.27,896.38 650.16,893.09 C658.04,889.80 673.05,883.23 683.50,878.48 C693.95,873.73 705.20,868.79 708.50,867.51 C711.80,866.22 718.21,863.33 722.74,861.09 C727.27,858.84 731.22,857.00 731.52,857.00 C732.40,857.00 775.18,838.10 779.15,835.96 C781.15,834.87 785.65,832.90 789.15,831.58 C796.74,828.70 805.76,824.79 828.50,814.49 C837.85,810.26 849.10,805.31 853.50,803.50 C857.90,801.69 865.33,798.41 870.00,796.21 C874.67,794.01 881.64,790.80 885.47,789.07 L 892.44 785.92 L 887.26 782.96 C884.40,781.33 881.85,780.00 881.58,780.00 C881.31,780.00 865.88,772.19 847.30,762.65 C828.71,753.11 801.35,739.10 786.50,731.51 C771.65,723.92 755.00,715.37 749.50,712.50 C720.06,697.14 692.20,683.00 691.41,683.01 C690.91,683.01 689.49,684.78 688.26,686.94 C679.36,702.53 647.03,733.00 625.74,745.86 C602.56,759.86 569.03,772.09 546.98,774.58 L 541.18 775.24 L 540.81 780.37 C540.61,783.19 540.35,820.49 540.23,863.25 ZM 490.99 939.45 C492.36,940.20 493.82,940.61 494.24,940.35 C494.66,940.09 495.00,902.84 495.00,857.57 L 495.00 775.26 L 489.10 774.59 C485.86,774.22 478.58,772.80 472.92,771.43 C439.41,763.32 413.38,750.81 388.38,730.81 C377.91,722.43 358.62,702.68 351.90,693.46 C348.93,689.39 346.27,686.06 346.00,686.07 C344.30,686.14 143.85,786.78 144.59,787.20 C145.09,787.49 146.74,788.02 148.25,788.38 C149.76,788.74 157.41,792.13 165.25,795.91 C173.09,799.69 185.57,805.28 193.00,808.33 C200.43,811.38 210.98,815.97 216.45,818.54 C221.93,821.11 231.38,825.22 237.45,827.68 C243.53,830.15 250.25,833.05 252.39,834.14 C257.75,836.86 285.71,849.37 290.00,850.97 C291.92,851.68 296.78,853.78 300.79,855.63 C304.80,857.49 308.30,859.00 308.57,859.00 C308.84,859.00 312.16,860.53 315.95,862.41 C319.75,864.28 323.89,866.15 325.16,866.55 C326.43,866.95 330.85,868.85 334.98,870.76 C343.25,874.60 361.21,882.51 379.00,890.17 C385.33,892.89 392.75,896.17 395.50,897.45 C398.25,898.74 404.77,901.68 410.00,903.98 C415.23,906.28 421.87,909.26 424.78,910.58 C427.68,911.91 430.31,913.00 430.62,913.00 C430.94,913.00 434.41,914.52 438.35,916.38 C442.28,918.24 448.88,921.12 453.00,922.78 C457.12,924.44 465.23,928.03 471.00,930.76 C476.77,933.48 483.08,936.24 485.00,936.89 C486.92,937.54 489.62,938.69 490.99,939.45 ZM 502.11 647.46 C527.18,652.89 555.91,643.85 586.68,620.83 C595.17,614.48 612.34,598.19 628.00,581.64 C631.56,577.87 636.96,573.18 639.99,571.22 C643.02,569.26 645.87,567.34 646.32,566.96 C646.77,566.58 644.97,565.01 642.32,563.48 C639.59,561.91 628.81,551.92 617.50,540.51 C593.82,516.62 579.39,505.32 560.72,496.05 C530.97,481.28 505.61,480.95 476.28,494.97 C456.11,504.60 438.73,518.12 416.25,541.66 C407.59,550.73 397.80,559.96 394.50,562.17 C391.20,564.38 388.72,566.48 388.98,566.84 C389.25,567.20 391.96,569.11 395.00,571.08 C398.05,573.05 403.23,577.53 406.52,581.04 C423.20,598.84 432.35,607.85 440.81,614.83 C462.55,632.73 482.02,643.10 502.11,647.46 ZM 531.54 625.45 C523.70,627.49 510.18,627.33 501.97,625.12 C488.14,621.38 473.15,610.29 466.12,598.60 C459.51,587.60 457.66,580.88 457.58,567.50 C457.53,560.06 458.03,553.60 458.89,550.50 C464.41,530.72 481.94,513.63 502.12,508.36 C510.38,506.20 524.62,506.20 532.88,508.36 C548.58,512.46 562.95,523.77 570.35,537.84 C577.74,551.91 579.65,566.23 576.03,580.39 C570.33,602.67 553.45,619.78 531.54,625.45 ZM 510.48 582.61 C517.25,585.56 525.59,583.65 530.27,578.09 C537.19,569.87 535.50,557.33 526.76,551.99 C522.01,549.10 512.42,549.23 507.99,552.25 C501.53,556.65 498.99,562.78 500.43,570.47 C501.22,574.70 506.24,580.76 510.48,582.61 Z"/>
<path d="M 0.00 512.00 L 0.00 0.00 L 512.00 0.00 L 1024.00 0.00 L 1024.00 512.00 L 1024.00 1024.00 L 512.00 1024.00 L 0.00 1024.00 L 0.00 512.00 ZM 536.50 998.28 C543.65,995.22 552.42,991.47 556.00,989.96 C559.58,988.44 567.22,985.08 573.00,982.50 C578.78,979.91 589.12,975.35 596.00,972.36 C609.40,966.53 627.75,958.39 637.50,953.94 C640.80,952.44 648.00,949.34 653.50,947.07 C659.00,944.79 664.62,942.32 666.00,941.57 C667.38,940.83 673.00,938.33 678.50,936.02 C684.00,933.70 691.20,930.54 694.50,928.98 C697.80,927.42 705.45,924.04 711.50,921.47 C717.55,918.90 727.00,914.77 732.50,912.28 C738.00,909.79 743.40,907.38 744.50,906.92 C745.60,906.45 750.55,904.22 755.50,901.96 C760.45,899.69 767.73,896.54 771.68,894.96 C775.64,893.37 783.66,889.81 789.52,887.04 C795.38,884.27 800.48,882.00 800.85,882.00 C801.22,882.00 808.04,879.02 816.01,875.38 C823.98,871.73 833.88,867.28 838.00,865.48 C842.12,863.69 853.15,858.86 862.50,854.75 C871.85,850.64 884.45,845.14 890.50,842.53 C905.47,836.07 926.74,826.59 936.85,821.89 C941.44,819.75 945.59,818.00 946.06,818.00 C946.54,818.00 952.13,815.48 958.48,812.40 C968.58,807.51 970.33,806.29 972.44,802.65 C975.63,797.15 976.42,792.28 974.98,786.91 C973.64,781.89 965.02,766.24 944.19,731.00 C923.26,695.59 920.17,690.30 913.50,678.53 C910.20,672.71 905.70,665.15 903.50,661.72 C901.29,658.30 896.60,650.33 893.07,644.00 C889.55,637.67 884.71,629.46 882.33,625.74 C879.95,622.02 878.00,618.78 878.00,618.54 C878.00,617.95 864.78,595.09 860.06,587.50 C858.00,584.20 851.22,572.72 845.00,562.00 C828.03,532.77 810.94,503.53 799.70,484.50 C779.53,450.35 777.07,446.16 765.98,427.00 C756.81,411.18 739.51,381.68 727.25,361.00 C726.11,359.08 722.43,352.68 719.07,346.78 C715.71,340.89 710.27,331.75 706.98,326.47 C703.69,321.20 701.00,316.65 701.00,316.36 C701.00,316.08 697.17,309.35 692.50,301.42 C676.11,273.62 667.23,258.44 663.28,251.50 C656.36,239.34 637.84,207.65 635.53,204.00 C634.31,202.07 631.36,197.12 628.97,193.00 C626.58,188.88 621.83,180.77 618.43,175.00 C609.94,160.60 600.60,144.61 593.03,131.50 C589.53,125.45 584.64,117.12 582.16,113.00 C579.69,108.88 575.11,101.00 571.99,95.50 C568.87,90.00 563.26,80.32 559.53,74.00 C555.79,67.68 551.84,60.92 550.74,59.00 C542.47,44.41 531.88,27.21 530.35,25.87 C526.75,22.73 523.43,21.64 517.42,21.63 C507.05,21.62 504.98,23.56 492.48,45.00 C488.79,51.33 484.07,59.42 481.98,63.00 C479.89,66.57 477.34,71.07 476.31,73.00 C475.29,74.93 473.75,77.62 472.89,79.00 C467.60,87.51 459.00,102.14 459.00,102.64 C459.00,102.96 456.22,107.79 452.83,113.36 C449.44,118.94 445.01,126.43 442.98,130.00 C432.74,148.11 430.62,151.78 428.55,155.00 C427.32,156.93 424.37,161.88 421.99,166.00 C419.62,170.12 416.46,175.52 414.97,178.00 C410.75,185.03 395.61,211.01 392.81,216.00 C389.25,222.37 370.42,254.52 366.75,260.50 C363.47,265.85 357.58,275.89 337.77,310.00 C319.95,340.67 305.78,364.85 298.47,377.10 C294.99,382.92 291.20,389.36 290.05,391.41 C285.13,400.17 280.00,409.06 275.29,417.00 C269.10,427.42 248.26,462.94 242.72,472.50 C240.49,476.35 236.33,483.33 233.48,488.00 C230.62,492.67 226.81,499.20 225.00,502.50 C223.19,505.80 219.37,512.33 216.50,517.00 C213.63,521.67 207.42,532.25 202.69,540.50 C197.96,548.75 192.72,557.75 191.04,560.50 C189.35,563.25 185.91,569.10 183.39,573.50 C177.90,583.07 177.21,584.26 168.54,599.00 C164.82,605.33 159.93,613.65 157.67,617.50 C155.41,621.35 152.87,625.73 152.03,627.23 C151.19,628.73 149.21,632.11 147.62,634.73 C146.04,637.35 141.71,644.67 138.00,651.00 C134.28,657.33 126.75,670.15 121.25,679.50 C115.76,688.85 110.29,698.30 109.11,700.50 C107.92,702.70 104.88,707.88 102.35,712.00 C97.50,719.90 74.89,758.89 67.27,772.50 C64.80,776.90 62.18,781.19 61.44,782.03 C59.57,784.15 58.63,791.02 59.45,796.53 C59.97,800.02 61.06,802.04 63.87,804.82 C67.55,808.45 70.70,809.95 114.00,828.70 C120.88,831.68 127.40,834.53 128.50,835.03 C136.65,838.79 164.15,850.93 171.50,854.02 C176.45,856.11 184.77,859.83 190.00,862.29 C200.13,867.07 217.18,874.59 233.50,881.49 C239.00,883.82 255.88,891.21 271.00,897.92 C300.62,911.06 301.15,911.30 311.22,915.89 C314.91,917.57 320.76,920.12 324.22,921.55 C327.67,922.99 334.33,925.89 339.00,928.00 C343.67,930.10 355.38,935.29 365.00,939.52 C374.62,943.74 390.06,950.56 399.29,954.66 C422.76,965.08 447.87,976.08 465.50,983.67 C473.75,987.23 486.88,993.03 494.67,996.57 C516.87,1006.65 516.94,1006.65 536.50,998.28 ZM 490.99 939.45 C489.62,938.69 486.92,937.54 485.00,936.89 C483.08,936.24 476.77,933.48 471.00,930.76 C465.23,928.03 457.12,924.44 453.00,922.78 C448.88,921.12 442.28,918.24 438.35,916.38 C434.41,914.52 430.94,913.00 430.62,913.00 C430.31,913.00 427.68,911.91 424.78,910.58 C421.87,909.26 415.23,906.28 410.00,903.98 C404.77,901.68 398.25,898.74 395.50,897.45 C392.75,896.17 385.33,892.89 379.00,890.17 C361.21,882.51 343.25,874.60 334.98,870.76 C330.85,868.85 326.43,866.95 325.16,866.55 C323.89,866.15 319.75,864.28 315.95,862.41 C312.16,860.53 308.84,859.00 308.57,859.00 C308.30,859.00 304.80,857.49 300.79,855.63 C296.78,853.78 291.92,851.68 290.00,850.97 C285.71,849.37 257.75,836.86 252.39,834.14 C250.25,833.05 243.53,830.15 237.45,827.68 C231.38,825.22 221.93,821.11 216.45,818.54 C210.98,815.97 200.43,811.38 193.00,808.33 C185.57,805.28 173.09,799.69 165.25,795.91 C157.41,792.13 149.76,788.74 148.25,788.38 C146.74,788.02 145.09,787.49 144.59,787.20 C143.85,786.78 344.30,686.14 346.00,686.07 C346.27,686.06 348.93,689.39 351.90,693.46 C358.62,702.68 377.91,722.43 388.38,730.81 C413.38,750.81 439.41,763.32 472.92,771.43 C478.58,772.80 485.86,774.22 489.10,774.59 L 495.00 775.26 L 495.00 857.57 C495.00,902.84 494.66,940.09 494.24,940.35 C493.82,940.61 492.36,940.20 490.99,939.45 ZM 540.23 863.25 C540.35,820.49 540.61,783.19 540.81,780.37 L 541.18 775.24 L 546.98 774.58 C569.03,772.09 602.56,759.86 625.74,745.86 C647.03,733.00 679.36,702.53 688.26,686.94 C689.49,684.78 690.91,683.01 691.41,683.01 C692.20,683.00 720.06,697.14 749.50,712.50 C755.00,715.37 771.65,723.92 786.50,731.51 C801.35,739.10 828.71,753.11 847.30,762.65 C865.88,772.19 881.31,780.00 881.58,780.00 C881.85,780.00 884.40,781.33 887.26,782.96 L 892.44 785.92 L 885.47 789.07 C881.64,790.80 874.67,794.01 870.00,796.21 C865.33,798.41 857.90,801.69 853.50,803.50 C849.10,805.31 837.85,810.26 828.50,814.49 C805.76,824.79 796.74,828.70 789.15,831.58 C785.65,832.90 781.15,834.87 779.15,835.96 C775.18,838.10 732.40,857.00 731.52,857.00 C731.22,857.00 727.27,858.84 722.74,861.09 C718.21,863.33 711.80,866.22 708.50,867.51 C705.20,868.79 693.95,873.73 683.50,878.48 C673.05,883.23 658.04,889.80 650.16,893.09 C642.27,896.38 633.20,900.38 630.01,901.99 C626.82,903.60 619.33,906.92 613.36,909.37 C607.39,911.82 594.85,917.27 585.50,921.48 C569.88,928.52 562.24,931.90 546.87,938.56 C543.78,939.90 540.97,941.00 540.63,941.00 C540.29,941.00 540.11,906.01 540.23,863.25 ZM 149.00 732.07 C149.00,731.63 149.84,730.20 150.87,728.88 C151.90,727.57 157.59,718.17 163.50,708.00 C169.42,697.83 177.42,684.10 181.30,677.50 C185.17,670.90 190.43,661.90 193.00,657.50 C195.56,653.10 201.85,642.30 206.98,633.50 C212.11,624.70 218.19,614.35 220.50,610.50 C222.81,606.65 226.23,600.80 228.10,597.50 C229.97,594.20 231.95,590.76 232.50,589.84 C233.05,588.93 235.93,583.98 238.89,578.84 C241.86,573.71 251.65,557.04 260.64,541.80 C269.64,526.57 277.00,513.91 277.00,513.68 C277.00,513.45 280.49,507.40 284.75,500.23 C289.01,493.07 294.30,483.99 296.50,480.06 C298.70,476.13 303.26,468.50 306.64,463.10 C310.02,457.70 315.11,449.05 317.96,443.89 C320.82,438.73 324.42,432.48 325.97,430.00 C328.60,425.80 338.00,409.71 347.30,393.50 C349.51,389.65 352.30,384.92 353.51,383.00 C354.72,381.08 358.18,375.23 361.20,370.00 C368.47,357.42 382.75,333.06 390.50,320.00 C393.93,314.23 398.87,305.67 401.47,301.00 C404.08,296.33 407.22,290.92 408.47,289.00 C409.71,287.08 415.14,277.85 420.52,268.50 C425.91,259.15 432.20,248.35 434.51,244.50 C436.82,240.65 442.89,230.30 448.01,221.50 C453.12,212.70 460.22,200.55 463.79,194.50 C467.35,188.45 472.84,179.00 476.00,173.50 C479.15,168.00 484.72,158.35 488.37,152.05 L 495.01 140.59 L 494.75 249.95 L 494.50 359.31 L 481.50 361.53 C463.12,364.69 438.63,372.62 422.93,380.52 C414.37,384.82 392.32,399.63 383.46,407.03 C361.15,425.67 339.18,454.52 328.20,479.59 C322.84,491.84 318.00,504.61 318.00,506.53 C318.00,507.51 318.46,507.84 319.21,507.37 C319.87,506.96 329.43,506.34 340.46,505.98 C362.97,505.26 365.82,504.56 371.23,498.40 C373.03,496.35 376.30,491.38 378.50,487.36 C383.60,478.04 398.40,458.84 406.36,451.23 C424.19,434.19 453.00,417.79 475.50,411.86 C501.22,405.09 537.63,405.12 560.00,411.91 C605.15,425.63 639.68,453.86 659.80,493.50 C662.37,498.58 667.50,503.39 672.00,504.94 C673.92,505.61 681.12,506.35 688.00,506.59 C694.88,506.83 704.37,507.19 709.11,507.38 L 717.71 507.73 L 715.02 499.12 C713.53,494.38 709.39,484.42 705.81,477.00 C694.81,454.15 684.79,439.91 666.53,421.15 C643.34,397.33 620.12,382.05 591.50,371.77 C574.75,365.75 569.54,364.30 556.50,362.00 C549.90,360.83 543.49,359.68 542.25,359.42 L 540.00 358.96 L 540.00 250.28 C540.00,185.01 540.36,141.98 540.91,142.55 C541.41,143.07 544.03,147.32 546.74,152.00 C549.44,156.68 554.03,164.55 556.93,169.50 C559.84,174.45 567.00,186.73 572.86,196.79 C578.71,206.84 584.90,217.42 586.60,220.29 C588.31,223.15 593.19,231.57 597.46,239.00 C601.72,246.43 609.61,259.92 614.99,269.00 C625.97,287.54 646.68,322.88 654.54,336.50 C668.78,361.16 678.28,377.53 684.16,387.50 C687.73,393.55 696.85,409.08 704.43,422.00 C722.44,452.72 731.39,467.91 736.53,476.50 C738.84,480.35 743.06,487.55 745.92,492.50 C748.77,497.45 752.35,503.52 753.87,506.00 C755.39,508.48 758.22,513.42 760.16,517.00 C762.10,520.58 765.49,526.42 767.70,530.00 C769.90,533.58 777.68,546.85 784.98,559.50 C792.29,572.15 799.10,583.72 800.13,585.21 C801.16,586.70 802.00,588.21 802.00,588.58 C802.00,588.94 806.04,595.91 810.98,604.07 C815.92,612.23 821.75,622.27 823.94,626.38 C826.12,630.49 829.92,636.97 832.36,640.79 C834.81,644.60 841.17,655.32 846.51,664.61 C851.85,673.90 857.63,683.87 859.36,686.77 C877.61,717.40 884.68,729.56 884.43,729.85 C884.26,730.05 882.86,729.57 881.31,728.78 C870.67,723.38 824.19,699.47 803.00,688.49 C788.97,681.23 765.85,669.30 751.62,661.99 C715.66,643.53 713.48,642.32 713.66,640.82 C713.75,640.09 714.83,636.23 716.07,632.24 C717.30,628.25 718.08,624.75 717.80,624.46 C717.51,624.18 715.98,624.45 714.39,625.06 C712.41,625.83 705.48,626.00 692.50,625.60 C667.00,624.81 668.20,624.29 660.53,639.29 C637.02,685.25 594.59,716.72 543.00,726.46 C533.06,728.34 504.86,728.63 495.50,726.95 C456.07,719.87 423.99,702.25 397.75,673.27 C388.17,662.69 382.45,654.19 374.50,638.68 C367.04,624.14 367.82,624.47 343.42,625.47 C331.62,625.95 325.02,625.81 322.07,625.02 C319.72,624.39 317.56,624.11 317.26,624.41 C316.80,624.86 321.25,639.11 323.44,644.19 C324.05,645.61 311.64,652.13 244.83,685.49 C157.12,729.29 149.00,733.23 149.00,732.07 ZM 541.26 693.00 C572.43,686.99 600.77,671.45 632.50,643.00 C638.56,637.57 647.77,628.36 652.97,622.53 C658.18,616.70 664.48,610.73 666.97,609.26 C671.36,606.67 672.13,606.56 692.00,605.94 C703.28,605.58 714.09,604.78 716.03,604.16 C723.32,601.82 731.01,590.55 730.99,582.22 C730.99,577.78 729.07,572.19 726.56,569.27 L 724.21 566.54 L 726.57 563.74 C729.09,560.74 730.99,555.20 730.99,550.78 C731.00,546.17 727.96,538.66 724.65,535.13 C719.16,529.27 716.64,528.68 694.00,528.01 C668.04,527.24 668.08,527.26 653.41,510.95 C630.31,485.25 602.67,464.03 576.70,452.04 C543.17,436.56 507.51,434.34 474.00,445.66 C455.71,451.84 431.76,465.56 413.36,480.40 C405.67,486.60 385.87,505.70 374.22,518.16 C365.94,527.00 364.81,527.34 341.00,528.02 C328.14,528.39 319.38,529.08 317.50,529.86 C312.55,531.93 306.33,538.75 304.97,543.59 C303.18,550.01 304.14,558.10 307.25,562.81 L 309.85 566.73 L 307.37 570.22 C304.27,574.57 303.21,583.11 304.98,589.43 C305.79,592.33 307.81,595.50 310.70,598.44 C317.09,604.92 321.52,606.00 341.74,606.00 C366.28,606.00 364.17,605.00 386.00,627.04 C413.08,654.39 431.88,668.64 456.50,680.46 C478.06,690.80 494.63,694.78 516.70,694.92 C527.07,694.98 533.69,694.46 541.26,693.00 ZM 502.11 647.46 C482.02,643.10 462.55,632.73 440.81,614.83 C432.35,607.85 423.20,598.84 406.52,581.04 C403.23,577.53 398.05,573.05 395.00,571.08 C391.96,569.11 389.25,567.20 388.98,566.84 C388.72,566.48 391.20,564.38 394.50,562.17 C397.80,559.96 407.59,550.73 416.25,541.66 C438.73,518.12 456.11,504.60 476.28,494.97 C505.61,480.95 530.97,481.28 560.72,496.05 C579.39,505.32 593.82,516.62 617.50,540.51 C628.81,551.92 639.59,561.91 642.32,563.48 C644.97,565.01 646.77,566.58 646.32,566.96 C645.87,567.34 643.02,569.26 639.99,571.22 C636.96,573.18 631.56,577.87 628.00,581.64 C612.34,598.19 595.17,614.48 586.68,620.83 C555.91,643.85 527.18,652.89 502.11,647.46 ZM 531.54 625.45 C553.45,619.78 570.33,602.67 576.03,580.39 C579.65,566.23 577.74,551.91 570.35,537.84 C562.95,523.77 548.58,512.46 532.88,508.36 C524.62,506.20 510.38,506.20 502.12,508.36 C481.94,513.63 464.41,530.72 458.89,550.50 C458.03,553.60 457.53,560.06 457.58,567.50 C457.66,580.88 459.51,587.60 466.12,598.60 C473.15,610.29 488.14,621.38 501.97,625.12 C510.18,627.33 523.70,627.49 531.54,625.45 ZM 510.48 582.61 C506.24,580.76 501.22,574.70 500.43,570.47 C498.99,562.78 501.53,556.65 507.99,552.25 C512.42,549.23 522.01,549.10 526.76,551.99 C535.50,557.33 537.19,569.87 530.27,578.09 C525.59,583.65 517.25,585.56 510.48,582.61 Z"/>
</g>
</svg>